<svg aria-hidden="true" xmlns="http://www.w3.org/2000/svg" xmlns:xlink="http://www.w3.org/1999/xlink">
<defs>
<symbol viewBox="0 0 24 24" id="search-icon" >
<path d="M18.031 16.617l4.283 4.282-1.415 1.415-4.282-4.283A8.96 8.96 0 0 1 11 20c-4.968 0-9-4.032-9-9s4.032-9 9-9 9 4.032 9 9a8.96 8.96 0 0 1-1.969 5.617zm-2.006-.742A6.977 6.977 0 0 0 18 11c0-3.868-3.133-7-7-7-3.868 0-7 3.132-7 7 0 3.867 3.132 7 7 7a6.977 6.977 0 0 0 4.875-1.975l.15-.15z"/>
</symbol>

<symbol viewBox="-1 0 24 24" id="user-icon" >
<g>
<path fill="none" d="M0 0h24v24H0z"/>
<path d="M20 22H4v-2a5 5 0 0 1 5-5h6a5 5 0 0 1 5 5v2zm-8-9a6 6 0 1 1 0-12 6 6 0 0 1 0 12z"/>
</g>
</symbol>

<symbol viewBox="0 0 24 20" id="star-full-icon">
<g>
<path fill="none" d="M0 0h24v24H0z"></path>
<path d="M12 18.26l-7.053 3.948 1.575-7.928L.587 8.792l8.027-.952L12 .5l3.386 7.34 8.027.952-5.935 5.488 1.575 7.928z"></path>
</g>
</symbol>

<symbol viewBox="0 1 20 18" id="star-half-icon">
<path d="M12 2L9.19 8.62L2 9.24L7.45 13.97L5.82 21L12 17.27V2Z"></path>
</symbol>

<symbol viewBox="-2 -2.5 19.20 19.20" id="check-circle-icon">
<path d="M16 8A8 8 0 1 1 0 8a8 8 0 0 1 16 0zm-3.97-3.03a.75.75 0 0 0-1.08.022L7.477 9.417 5.384 7.323a.75.75 0 0 0-1.06 1.06L6.97 11.03a.75.75 0 0 0 1.079-.02l3.992-4.99a.75.75 0 0 0-.01-1.05z"></path>
</symbol>

<symbol viewBox="-0.5 -1 24 24" id="x-circle-icon">
<path d="M12 2C6.486 2 2 6.486 2 12s4.486 10 10 10 10-4.486 10-10S17.514 2 12 2zm4.207 12.793-1.414 1.414L12 13.414l-2.793 2.793-1.414-1.414L10.586 12 7.793 9.207l1.414-1.414L12 10.586l2.793-2.793 1.414 1.414L13.414 12l2.793 2.793z"></path>
</symbol>

<symbol viewBox="0 0 24 24" id="location-icon">
<path d="M0 0h24v24H0z" fill="none"></path><path d="M12 2C8.13 2 5 5.13 5 9c0 5.25 7 13 7 13s7-7.75 7-13c0-3.87-3.13-7-7-7zm0 9.5c-1.38 0-2.5-1.12-2.5-2.5s1.12-2.5 2.5-2.5 2.5 1.12 2.5 2.5-1.12 2.5-2.5 2.5z"></path>
</symbol>

<symbol viewBox="0 0 24 24" id="wifi-icon">
<g>
<path fill="none" d="M0 0h24v24H0z"></path>
<path d="M.69 6.997A17.925 17.925 0 0 1 12 3c4.285 0 8.22 1.497 11.31 3.997L21.425 9.33A14.937 14.937 0 0 0 12 6C8.43 6 5.15 7.248 2.575 9.33L.69 6.997zm3.141 3.89A12.946 12.946 0 0 1 12 8c3.094 0 5.936 1.081 8.169 2.886l-1.885 2.334A9.958 9.958 0 0 0 12 11c-2.38 0-4.566.832-6.284 2.22l-1.885-2.334zm3.142 3.89A7.967 7.967 0 0 1 12 13c1.904 0 3.653.665 5.027 1.776l-1.885 2.334A4.98 4.98 0 0 0 12 16a4.98 4.98 0 0 0-3.142 1.11l-1.885-2.334zm3.142 3.89A2.987 2.987 0 0 1 12 18c.714 0 1.37.25 1.885.666L12 21l-1.885-2.334z"></path>
</g>
</symbol>

<symbol viewBox="0 0 16 16" id="people-icon">
<path d="M7 14s-1 0-1-1 1-4 5-4 5 3 5 4-1 1-1 1H7zm4-6a3 3 0 1 0 0-6 3 3 0 0 0 0 6z"></path>
<path fill-rule="evenodd" d="M5.216 14A2.238 2.238 0 0 1 5 13c0-1.355.68-2.75 1.936-3.72A6.325 6.325 0 0 0 5 9c-4 0-5 3-5 4s1 1 1 1h4.216z"></path>
<path d="M4.5 8a2.5 2.5 0 1 0 0-5 2.5 2.5 0 0 0 0 5z"></path>
</symbol>

<symbol viewBox="0 0 24 24" id="parking-icon">
<g>
<path fill="none" d="M0 0h24v24H0z"></path>
<path d="M11 14h1.5a3.5 3.5 0 0 0 0-7H9v10h2v-3zM4 3h16a1 1 0 0 1 1 1v16a1 1 0 0 1-1 1H4a1 1 0 0 1-1-1V4a1 1 0 0 1 1-1zm7 6h1.5a1.5 1.5 0 0 1 0 3H11V9z"></path>
</g>
</symbol>

<symbol viewBox="0 0 24 24" id="breakfast-icon">
<path d="M11,9H9V2H7V9H5V2H3V9C3,11.12 4.66,12.84 6.75,12.97V22H9.25V12.97C11.34,12.84 13,11.12 13,9V2H11V9M16,6V14H18.5V22H21V2C18.24,2 16,4.24 16,6Z"></path>
</symbol>

<symbol viewBox="0 0 24 24" id="pets-icon">
<path d="M0 0h24v24H0z" fill="none"></path><circle cx="4.5" cy="9.5" r="2.5"></circle><circle cx="9" cy="5.5" r="2.5"></circle><circle cx="15" cy="5.5" r="2.5"></circle><circle cx="19.5" cy="9.5" r="2.5"></circle><path d="M17.34 14.86c-.87-1.02-1.6-1.89-2.48-2.91-.46-.54-1.05-1.08-1.75-1.32-.11-.04-.22-.07-.33-.09-.25-.04-.52-.04-.78-.04s-.53 0-.79.05c-.11.02-.22.05-.33.09-.7.24-1.28.78-1.75 1.32-.87 1.02-1.6 1.89-2.48 2.91-1.31 1.31-2.92 2.76-2.62 4.79.29 1.02 1.02 2.03 2.33 2.32.73.15 3.06-.44 5.54-.44h.18c2.48 0 4.81.58 5.54.44 1.31-.29 2.04-1.31 2.33-2.32.31-2.04-1.3-3.49-2.61-4.8z"></path>
</symbol>

<symbol viewBox="207.91699456407457 115.00000000000001 134.16601087185086 134.16601087185086" id="logo-icon"> 
<g data-paper-data="{&quot;isIcon&quot;:&quot;true&quot;,&quot;iconType&quot;:&quot;icon&quot;,&quot;rawIconId&quot;:&quot;1806037&quot;,&quot;selectedEffects&quot;:{&quot;container&quot;:&quot;&quot;,&quot;transformation&quot;:&quot;&quot;,&quot;pattern&quot;:&quot;&quot;},&quot;isDetailed&quot;:false,&quot;fillRule&quot;:&quot;evenodd&quot;,&quot;bounds&quot;:{&quot;x&quot;:207.91699456407457,&quot;y&quot;:115.00000000000001,&quot;width&quot;:134.16601087185086,&quot;height&quot;:134.16601087185086},&quot;iconStyle&quot;:&quot;standalone&quot;,&quot;suitableAsStandaloneIcon&quot;:true}" fill-rule="evenodd"><path d="M286.18106,142.94678c6.16325,0 11.17938,-5.01781 11.17938,-11.18609v-12.86317c-7.00347,-2.47872 -14.50335,-3.89752 -22.36044,-3.89752c-27.38328,0 -50.90258,16.43701 -61.32225,39.96638c15.09871,-7.62734 32.09922,-12.01624 50.14119,-12.01624zM263.81894,154.13119c-20.2272,0 -39.03728,6.04921 -54.83197,16.36155c-0.66077,3.77342 -1.06997,7.62734 -1.06997,11.59027c0,0.96096 0.10398,1.90013 0.14758,2.84935c15.30163,-12.24936 34.67185,-19.6201 55.75436,-19.6201l22.36212,-0.00503c18.35894,0 33.3,-14.83373 33.51802,-33.14404c-3.42291,-3.06905 -7.15105,-5.79765 -11.15758,-8.11369v7.71119c0,12.33321 -10.02723,22.36547 -22.36044,22.36547zM286.18106,187.66767c22.31181,0 41.51096,-13.10634 50.48164,-32.00698c-1.93702,-4.51972 -4.40065,-8.75098 -7.23826,-12.69378c-4.99601,19.24444 -22.45939,33.5197 -43.24338,33.5197l-22.36212,0.00671c-20.88126,0 -39.83557,8.27133 -53.88778,21.65104c1.01128,4.08368 2.37474,8.0248 4.08871,11.77474c12.27787,-13.62456 30.01461,-22.2464 49.79907,-22.2464zM286.18106,198.85376c22.66735,0 42.66815,-11.28001 54.81688,-28.49686c0.67083,3.81535 1.08507,7.7179 1.08507,11.72611c0,1.55633 -0.13081,3.07911 -0.23479,4.60693c-14.19812,14.39601 -33.9004,23.34489 -55.66715,23.34489h-22.36212c-15.12554,0 -28.50189,7.57199 -36.59713,19.10189c-2.69171,-2.73531 -5.14191,-5.70373 -7.3372,-8.86502c10.23519,-13.02752 26.08858,-21.41793 43.93434,-21.41793zM263.81894,221.2142c-11.72611,0 -22.04851,6.05927 -28.04908,15.20436c11.03851,7.98623 24.56747,12.74745 39.23014,12.74745c29.22303,0 54.00853,-18.71448 63.20561,-44.78797c-14.67441,10.55383 -32.6124,16.83616 -52.02455,16.83616z" data-paper-data="{&quot;isPathIcon&quot;:true}"></path></g>
</symbol>

<symbol viewBox="0 0 16 16" id="x-close-icon">
<path fill-rule="evenodd" d="M13.854 2.146a.5.5 0 0 1 0 .708l-11 11a.5.5 0 0 1-.708-.708l11-11a.5.5 0 0 1 .708 0Z"></path>
<path fill-rule="evenodd" d="M2.146 2.146a.5.5 0 0 0 0 .708l11 11a.5.5 0 0 0 .708-.708l-11-11a.5.5 0 0 0-.708 0Z"></path>
</symbol>

<symbol viewBox="0 0 24 24" id="edit-icon">
<path d="M5,3C3.89,3 3,3.89 3,5V19A2,2 0 0,0 5,21H19A2,2 0 0,0 21,19V12H19V19H5V5H12V3H5M17.78,4C17.61,4 17.43,4.07 17.3,4.2L16.08,5.41L18.58,7.91L19.8,6.7C20.06,6.44 20.06,6 19.8,5.75L18.25,4.2C18.12,4.07 17.95,4 17.78,4M15.37,6.12L8,13.5V16H10.5L17.87,8.62L15.37,6.12Z"></path>
</symbol>

<symbol viewBox="0 0 24 24" id="delete-icon">
<path d="M3 6H21M5 6V20C5 21.1046 5.89543 22 7 22H17C18.1046 22 19 21.1046 19 20V6M8 6V4C8 2.89543 8.89543 2 10 2H14C15.1046 2 16 2.89543 16 4V6" stroke="black" stroke-width="2" stroke-linecap="round" stroke-linejoin="round"></path>
<path d="M14 11V17" stroke="black" stroke-width="2" stroke-linecap="round" stroke-linejoin="round"></path>
<path d="M10 11V17" stroke="black" stroke-width="2" stroke-linecap="round" stroke-linejoin="round"></path>
</symbol>

<symbol xmlns="http://www.w3.org/2000/svg" viewBox="0 0 320 512" id="facebook-icon"><path d="M279.14 288l14.22-92.66h-88.91v-60.13c0-25.35 12.42-50.06 52.24-50.06h40.42V6.26S260.43 0 225.36 0c-73.22 0-121.08 44.38-121.08 124.72v70.62H22.89V288h81.39v224h100.17V288z" fill="#fff" style=""></path></symbol>

<symbol role="img" viewBox="0 0 24 24" xmlns="http://www.w3.org/2000/svg" id="instagram-icon" ><path d="M12 0C8.74 0 8.333.015 7.053.072 5.775.132 4.905.333 4.14.63c-.789.306-1.459.717-2.126 1.384S.935 3.35.63 4.14C.333 4.905.131 5.775.072 7.053.012 8.333 0 8.74 0 12s.015 3.667.072 4.947c.06 1.277.261 2.148.558 2.913a5.885 5.885 0 0 0 1.384 2.126A5.868 5.868 0 0 0 4.14 23.37c.766.296 1.636.499 2.913.558C8.333 23.988 8.74 24 12 24s3.667-.015 4.947-.072c1.277-.06 2.148-.262 2.913-.558a5.898 5.898 0 0 0 2.126-1.384 5.86 5.86 0 0 0 1.384-2.126c.296-.765.499-1.636.558-2.913.06-1.28.072-1.687.072-4.947s-.015-3.667-.072-4.947c-.06-1.277-.262-2.149-.558-2.913a5.89 5.89 0 0 0-1.384-2.126A5.847 5.847 0 0 0 19.86.63c-.765-.297-1.636-.499-2.913-.558C15.667.012 15.26 0 12 0zm0 2.16c3.203 0 3.585.016 4.85.071 1.17.055 1.805.249 2.227.415.562.217.96.477 1.382.896.419.42.679.819.896 1.381.164.422.36 1.057.413 2.227.057 1.266.07 1.646.07 4.85s-.015 3.585-.074 4.85c-.061 1.17-.256 1.805-.421 2.227a3.81 3.81 0 0 1-.899 1.382 3.744 3.744 0 0 1-1.38.896c-.42.164-1.065.36-2.235.413-1.274.057-1.649.07-4.859.07-3.211 0-3.586-.015-4.859-.074-1.171-.061-1.816-.256-2.236-.421a3.716 3.716 0 0 1-1.379-.899 3.644 3.644 0 0 1-.9-1.38c-.165-.42-.359-1.065-.42-2.235-.045-1.26-.061-1.649-.061-4.844 0-3.196.016-3.586.061-4.861.061-1.17.255-1.814.42-2.234.21-.57.479-.96.9-1.381.419-.419.81-.689 1.379-.898.42-.166 1.051-.361 2.221-.421 1.275-.045 1.65-.06 4.859-.06l.045.03zm0 3.678a6.162 6.162 0 1 0 0 12.324 6.162 6.162 0 1 0 0-12.324zM12 16c-2.21 0-4-1.79-4-4s1.79-4 4-4 4 1.79 4 4-1.79 4-4 4zm7.846-10.405a1.441 1.441 0 0 1-2.88 0 1.44 1.44 0 0 1 2.88 0z" fill="#fff" style=""></path></symbol>

<symbol xmlns="http://www.w3.org/2000/svg" viewBox="0 0 24 24" id="twitter-icon"><path d="M19.633 7.997c.013.175.013.349.013.523 0 5.325-4.053 11.461-11.46 11.461-2.282 0-4.402-.661-6.186-1.809.324.037.636.05.973.05a8.07 8.07 0 0 0 5.001-1.721 4.036 4.036 0 0 1-3.767-2.793c.249.037.499.062.761.062.361 0 .724-.05 1.061-.137a4.027 4.027 0 0 1-3.23-3.953v-.05c.537.299 1.16.486 1.82.511a4.022 4.022 0 0 1-1.796-3.354c0-.748.199-1.434.548-2.032a11.457 11.457 0 0 0 8.306 4.215c-.062-.3-.1-.611-.1-.923a4.026 4.026 0 0 1 4.028-4.028c1.16 0 2.207.486 2.943 1.272a7.957 7.957 0 0 0 2.556-.973 4.02 4.02 0 0 1-1.771 2.22 8.073 8.073 0 0 0 2.319-.624 8.645 8.645 0 0 1-2.019 2.083z" fill="#fff" style=""></path></symbol>

</defs>
</svg>

