<svg aria-hidden="true" xmlns="http://www.w3.org/2000/svg" xmlns:xlink="http://www.w3.org/1999/xlink">
<defs>
<symbol viewBox="0 0 24 24" id="search-icon" >
<path d="M18.031 16.617l4.283 4.282-1.415 1.415-4.282-4.283A8.96 8.96 0 0 1 11 20c-4.968 0-9-4.032-9-9s4.032-9 9-9 9 4.032 9 9a8.96 8.96 0 0 1-1.969 5.617zm-2.006-.742A6.977 6.977 0 0 0 18 11c0-3.868-3.133-7-7-7-3.868 0-7 3.132-7 7 0 3.867 3.132 7 7 7a6.977 6.977 0 0 0 4.875-1.975l.15-.15z"/>
</symbol>

<symbol viewBox="-1 0 24 24" id="user-icon" >
<g>
<path fill="none" d="M0 0h24v24H0z"/>
<path d="M20 22H4v-2a5 5 0 0 1 5-5h6a5 5 0 0 1 5 5v2zm-8-9a6 6 0 1 1 0-12 6 6 0 0 1 0 12z"/>
</g>
</symbol>

<symbol viewBox="0 0 24 20" id="star-full-icon">
<g>
<path fill="none" d="M0 0h24v24H0z"></path>
<path d="M12 18.26l-7.053 3.948 1.575-7.928L.587 8.792l8.027-.952L12 .5l3.386 7.34 8.027.952-5.935 5.488 1.575 7.928z"></path>
</g>
</symbol>

<symbol viewBox="0 1 20 18" id="star-half-icon">
<path d="M12 2L9.19 8.62L2 9.24L7.45 13.97L5.82 21L12 17.27V2Z"></path>
</symbol>

<symbol viewBox="-2 -2.5 19.20 19.20" id="check-circle-icon">
<path d="M16 8A8 8 0 1 1 0 8a8 8 0 0 1 16 0zm-3.97-3.03a.75.75 0 0 0-1.08.022L7.477 9.417 5.384 7.323a.75.75 0 0 0-1.06 1.06L6.97 11.03a.75.75 0 0 0 1.079-.02l3.992-4.99a.75.75 0 0 0-.01-1.05z"></path>
</symbol>

<symbol viewBox="-0.5 -1 24 24" id="x-circle-icon">
<path d="M12 2C6.486 2 2 6.486 2 12s4.486 10 10 10 10-4.486 10-10S17.514 2 12 2zm4.207 12.793-1.414 1.414L12 13.414l-2.793 2.793-1.414-1.414L10.586 12 7.793 9.207l1.414-1.414L12 10.586l2.793-2.793 1.414 1.414L13.414 12l2.793 2.793z"></path>
</symbol>

<symbol viewBox="0 0 24 24" id="location-icon">
<path d="M0 0h24v24H0z" fill="none"></path><path d="M12 2C8.13 2 5 5.13 5 9c0 5.25 7 13 7 13s7-7.75 7-13c0-3.87-3.13-7-7-7zm0 9.5c-1.38 0-2.5-1.12-2.5-2.5s1.12-2.5 2.5-2.5 2.5 1.12 2.5 2.5-1.12 2.5-2.5 2.5z"></path>
</symbol>

<symbol viewBox="0 0 24 24" id="wifi-icon">
<g>
<path fill="none" d="M0 0h24v24H0z"></path>
<path d="M.69 6.997A17.925 17.925 0 0 1 12 3c4.285 0 8.22 1.497 11.31 3.997L21.425 9.33A14.937 14.937 0 0 0 12 6C8.43 6 5.15 7.248 2.575 9.33L.69 6.997zm3.141 3.89A12.946 12.946 0 0 1 12 8c3.094 0 5.936 1.081 8.169 2.886l-1.885 2.334A9.958 9.958 0 0 0 12 11c-2.38 0-4.566.832-6.284 2.22l-1.885-2.334zm3.142 3.89A7.967 7.967 0 0 1 12 13c1.904 0 3.653.665 5.027 1.776l-1.885 2.334A4.98 4.98 0 0 0 12 16a4.98 4.98 0 0 0-3.142 1.11l-1.885-2.334zm3.142 3.89A2.987 2.987 0 0 1 12 18c.714 0 1.37.25 1.885.666L12 21l-1.885-2.334z"></path>
</g>
</symbol>

<symbol viewBox="0 0 16 16" id="people-icon">
<path d="M7 14s-1 0-1-1 1-4 5-4 5 3 5 4-1 1-1 1H7zm4-6a3 3 0 1 0 0-6 3 3 0 0 0 0 6z"></path>
<path fill-rule="evenodd" d="M5.216 14A2.238 2.238 0 0 1 5 13c0-1.355.68-2.75 1.936-3.72A6.325 6.325 0 0 0 5 9c-4 0-5 3-5 4s1 1 1 1h4.216z"></path>
<path d="M4.5 8a2.5 2.5 0 1 0 0-5 2.5 2.5 0 0 0 0 5z"></path>
</symbol>

<symbol viewBox="0 0 24 24" id="parking-icon">
<g>
<path fill="none" d="M0 0h24v24H0z"></path>
<path d="M11 14h1.5a3.5 3.5 0 0 0 0-7H9v10h2v-3zM4 3h16a1 1 0 0 1 1 1v16a1 1 0 0 1-1 1H4a1 1 0 0 1-1-1V4a1 1 0 0 1 1-1zm7 6h1.5a1.5 1.5 0 0 1 0 3H11V9z"></path>
</g>
</symbol>

<symbol viewBox="0 0 24 24" id="breakfast-icon">
<path d="M11,9H9V2H7V9H5V2H3V9C3,11.12 4.66,12.84 6.75,12.97V22H9.25V12.97C11.34,12.84 13,11.12 13,9V2H11V9M16,6V14H18.5V22H21V2C18.24,2 16,4.24 16,6Z"></path>
</symbol>

<symbol viewBox="0 0 24 24" id="pets-icon">
<path d="M0 0h24v24H0z" fill="none"></path><circle cx="4.5" cy="9.5" r="2.5"></circle><circle cx="9" cy="5.5" r="2.5"></circle><circle cx="15" cy="5.5" r="2.5"></circle><circle cx="19.5" cy="9.5" r="2.5"></circle><path d="M17.34 14.86c-.87-1.02-1.6-1.89-2.48-2.91-.46-.54-1.05-1.08-1.75-1.32-.11-.04-.22-.07-.33-.09-.25-.04-.52-.04-.78-.04s-.53 0-.79.05c-.11.02-.22.05-.33.09-.7.24-1.28.78-1.75 1.32-.87 1.02-1.6 1.89-2.48 2.91-1.31 1.31-2.92 2.76-2.62 4.79.29 1.02 1.02 2.03 2.33 2.32.73.15 3.06-.44 5.54-.44h.18c2.48 0 4.81.58 5.54.44 1.31-.29 2.04-1.31 2.33-2.32.31-2.04-1.3-3.49-2.61-4.8z"></path>
</symbol>

<symbol viewBox="207.91699456407457 115.00000000000001 134.16601087185086 134.16601087185086" id="logo-icon"> 
<g data-paper-data="{&quot;isIcon&quot;:&quot;true&quot;,&quot;iconType&quot;:&quot;icon&quot;,&quot;rawIconId&quot;:&quot;1806037&quot;,&quot;selectedEffects&quot;:{&quot;container&quot;:&quot;&quot;,&quot;transformation&quot;:&quot;&quot;,&quot;pattern&quot;:&quot;&quot;},&quot;isDetailed&quot;:false,&quot;fillRule&quot;:&quot;evenodd&quot;,&quot;bounds&quot;:{&quot;x&quot;:207.91699456407457,&quot;y&quot;:115.00000000000001,&quot;width&quot;:134.16601087185086,&quot;height&quot;:134.16601087185086},&quot;iconStyle&quot;:&quot;standalone&quot;,&quot;suitableAsStandaloneIcon&quot;:true}" fill-rule="evenodd"><path d="M286.18106,142.94678c6.16325,0 11.17938,-5.01781 11.17938,-11.18609v-12.86317c-7.00347,-2.47872 -14.50335,-3.89752 -22.36044,-3.89752c-27.38328,0 -50.90258,16.43701 -61.32225,39.96638c15.09871,-7.62734 32.09922,-12.01624 50.14119,-12.01624zM263.81894,154.13119c-20.2272,0 -39.03728,6.04921 -54.83197,16.36155c-0.66077,3.77342 -1.06997,7.62734 -1.06997,11.59027c0,0.96096 0.10398,1.90013 0.14758,2.84935c15.30163,-12.24936 34.67185,-19.6201 55.75436,-19.6201l22.36212,-0.00503c18.35894,0 33.3,-14.83373 33.51802,-33.14404c-3.42291,-3.06905 -7.15105,-5.79765 -11.15758,-8.11369v7.71119c0,12.33321 -10.02723,22.36547 -22.36044,22.36547zM286.18106,187.66767c22.31181,0 41.51096,-13.10634 50.48164,-32.00698c-1.93702,-4.51972 -4.40065,-8.75098 -7.23826,-12.69378c-4.99601,19.24444 -22.45939,33.5197 -43.24338,33.5197l-22.36212,0.00671c-20.88126,0 -39.83557,8.27133 -53.88778,21.65104c1.01128,4.08368 2.37474,8.0248 4.08871,11.77474c12.27787,-13.62456 30.01461,-22.2464 49.79907,-22.2464zM286.18106,198.85376c22.66735,0 42.66815,-11.28001 54.81688,-28.49686c0.67083,3.81535 1.08507,7.7179 1.08507,11.72611c0,1.55633 -0.13081,3.07911 -0.23479,4.60693c-14.19812,14.39601 -33.9004,23.34489 -55.66715,23.34489h-22.36212c-15.12554,0 -28.50189,7.57199 -36.59713,19.10189c-2.69171,-2.73531 -5.14191,-5.70373 -7.3372,-8.86502c10.23519,-13.02752 26.08858,-21.41793 43.93434,-21.41793zM263.81894,221.2142c-11.72611,0 -22.04851,6.05927 -28.04908,15.20436c11.03851,7.98623 24.56747,12.74745 39.23014,12.74745c29.22303,0 54.00853,-18.71448 63.20561,-44.78797c-14.67441,10.55383 -32.6124,16.83616 -52.02455,16.83616z" data-paper-data="{&quot;isPathIcon&quot;:true}"></path></g>
</symbol>

</defs>
</svg>

